<?xml version="1.0" encoding="UTF-8" standalone="no"?><!DOCTYPE svg PUBLIC "-//W3C//DTD SVG 1.1//EN" "http://www.w3.org/Graphics/SVG/1.1/DTD/svg11.dtd"><!-- Generated by graphviz version 2.40.1 (20161225.0304)
 --><!-- Title: FSM Pages: 1 --><svg xmlns="http://www.w3.org/2000/svg" xmlns:xlink="http://www.w3.org/1999/xlink" width="576pt" height="119pt" viewBox="0.00 0.00 576.00 119.39">
<g id="graph0" class="graph" transform="scale(.3601 .3601) rotate(0) translate(4 327.5619)">
<title>FSM</title>
<polygon fill="#ffffff" stroke="transparent" points="-4,4 -4,-327.5619 1595.599,-327.5619 1595.599,4 -4,4"/>
<!-- Idle -->
<g id="node1" class="node">
<title>Idle</title>
<ellipse fill="none" stroke="#000000" cx="79.7459" cy="-74.816" rx="71.5191" ry="71.5191"/>
<text text-anchor="middle" x="79.7459" y="-87.416" font-family="Times,serif" font-size="14.00" fill="#000000">Idle</text>
<text text-anchor="middle" x="79.7459" y="-70.616" font-family="Times,serif" font-size="14.00" fill="#000000">Alarm: Off</text>
<text text-anchor="middle" x="79.7459" y="-53.816" font-family="Times,serif" font-size="14.00" fill="#000000">Barrier: Raised</text>
</g>
<!-- Alarm_On -->
<g id="node2" class="node">
<title>Alarm_On</title>
<ellipse fill="none" stroke="#000000" cx="390.6411" cy="-163.816" rx="71.5191" ry="71.5191"/>
<text text-anchor="middle" x="390.6411" y="-168.016" font-family="Times,serif" font-size="14.00" fill="#000000">Alarm On</text>
<text text-anchor="middle" x="390.6411" y="-151.216" font-family="Times,serif" font-size="14.00" fill="#000000">Barrier: Raised</text>
</g>
<!-- Idle&#45;&gt;Alarm_On -->
<g id="edge1" class="edge">
<title>Idle-&gt;Alarm_On</title>
<path fill="none" stroke="#000000" d="M148.7436,-94.568C197.0442,-108.395 261.6724,-126.8961 311.9757,-141.2964"/>
<polygon fill="#000000" stroke="#000000" points="311.2591,-144.7318 321.8362,-144.1192 313.1857,-138.0022 311.2591,-144.7318"/>
<text text-anchor="middle" x="239.3117" y="-174.616" font-family="Times,serif" font-size="14.00" fill="#000000">northbound_approach</text>
<text text-anchor="middle" x="239.3117" y="-157.816" font-family="Times,serif" font-size="14.00" fill="#000000">or</text>
<text text-anchor="middle" x="239.3117" y="-141.016" font-family="Times,serif" font-size="14.00" fill="#000000">southbound_approach</text>
</g>
<!-- Barrier_Lowering -->
<g id="node3" class="node">
<title>Barrier_Lowering</title>
<ellipse fill="none" stroke="#000000" cx="662.0558" cy="-169.816" rx="83.1048" ry="83.1048"/>
<text text-anchor="middle" x="662.0558" y="-174.016" font-family="Times,serif" font-size="14.00" fill="#000000">Alarm On</text>
<text text-anchor="middle" x="662.0558" y="-157.216" font-family="Times,serif" font-size="14.00" fill="#000000">Barrier: Lowering</text>
</g>
<!-- Alarm_On&#45;&gt;Barrier_Lowering -->
<g id="edge2" class="edge">
<title>Alarm_On-&gt;Barrier_Lowering</title>
<path fill="none" stroke="#000000" d="M462.3071,-165.4003C494.8985,-166.1208 533.8841,-166.9826 568.7267,-167.7528"/>
<polygon fill="#000000" stroke="#000000" points="568.8388,-171.2561 578.9137,-167.978 568.9936,-164.2578 568.8388,-171.2561"/>
<text text-anchor="middle" x="520.577" y="-171.016" font-family="Times,serif" font-size="14.00" fill="#000000">10 sec elapsed</text>
</g>
<!-- Barrier_Lowered -->
<g id="node4" class="node">
<title>Barrier_Lowered</title>
<ellipse fill="none" stroke="#000000" cx="953.7413" cy="-167.816" rx="79.9927" ry="79.9927"/>
<text text-anchor="middle" x="953.7413" y="-172.016" font-family="Times,serif" font-size="14.00" fill="#000000">Alarm On</text>
<text text-anchor="middle" x="953.7413" y="-155.216" font-family="Times,serif" font-size="14.00" fill="#000000">Barrier: Lowered</text>
</g>
<!-- Barrier_Lowering&#45;&gt;Barrier_Lowered -->
<g id="edge3" class="edge">
<title>Barrier_Lowering-&gt;Barrier_Lowered</title>
<path fill="none" stroke="#000000" d="M745.2508,-169.2456C782.1908,-168.9923 825.7511,-168.6936 863.4771,-168.4349"/>
<polygon fill="#000000" stroke="#000000" points="863.9769,-171.9317 873.9526,-168.3631 863.9288,-164.9318 863.9769,-171.9317"/>
<text text-anchor="middle" x="809.5518" y="-173.016" font-family="Times,serif" font-size="14.00" fill="#000000">Barrier Lowered</text>
</g>
<!-- Barrier_Lowered&#45;&gt;Barrier_Lowered -->
<g id="edge7" class="edge">
<title>Barrier_Lowered-&gt;Barrier_Lowered</title>
<path fill="none" stroke="#000000" d="M928.5359,-243.6358C931.9802,-256.5882 940.382,-265.5619 953.7413,-265.5619 963.5521,-265.5619 970.6893,-260.7223 975.1527,-253.0215"/>
<polygon fill="#000000" stroke="#000000" points="978.4439,-254.2187 978.9467,-243.6358 971.954,-251.5953 978.4439,-254.2187"/>
<text text-anchor="middle" x="953.7413" y="-269.7619" font-family="Times,serif" font-size="14.00" fill="#000000">Train still present</text>
</g>
<!-- Barrier_Raised -->
<g id="node7" class="node">
<title>Barrier_Raised</title>
<ellipse fill="none" stroke="#000000" cx="1246.2909" cy="-160.816" rx="69.4761" ry="69.4761"/>
<text text-anchor="middle" x="1246.2909" y="-156.616" font-family="Times,serif" font-size="14.00" fill="#000000">Barrier_Raised</text>
</g>
<!-- Barrier_Lowered&#45;&gt;Barrier_Raised -->
<g id="edge4" class="edge">
<title>Barrier_Lowered-&gt;Barrier_Raised</title>
<path fill="none" stroke="#000000" d="M1033.6818,-165.9032C1074.9424,-164.916 1125.1369,-163.7149 1166.3916,-162.7278"/>
<polygon fill="#000000" stroke="#000000" points="1166.4906,-166.2265 1176.4039,-162.4882 1166.323,-159.2285 1166.4906,-166.2265"/>
<text text-anchor="middle" x="1105.1451" y="-202.616" font-family="Times,serif" font-size="14.00" fill="#000000">northbound_depart</text>
<text text-anchor="middle" x="1105.1451" y="-185.816" font-family="Times,serif" font-size="14.00" fill="#000000">or</text>
<text text-anchor="middle" x="1105.1451" y="-169.016" font-family="Times,serif" font-size="14.00" fill="#000000">southbound_depart</text>
</g>
<!-- Timer_Elapsed -->
<g id="node5" class="node">
<title>Timer_Elapsed</title>
<ellipse fill="none" stroke="#000000" cx="79.7459" cy="-243.816" rx="79.9927" ry="79.9927"/>
<text text-anchor="middle" x="79.7459" y="-248.016" font-family="Times,serif" font-size="14.00" fill="#000000">Timer Elapsed</text>
<text text-anchor="middle" x="79.7459" y="-231.216" font-family="Times,serif" font-size="14.00" fill="#000000">Barrier: Lowered</text>
</g>
<!-- Barrier_Raising -->
<g id="node6" class="node">
<title>Barrier_Raising</title>
<ellipse fill="none" stroke="#000000" cx="1516.783" cy="-74.816" rx="74.6324" ry="74.6324"/>
<text text-anchor="middle" x="1516.783" y="-79.016" font-family="Times,serif" font-size="14.00" fill="#000000">Alarm Off</text>
<text text-anchor="middle" x="1516.783" y="-62.216" font-family="Times,serif" font-size="14.00" fill="#000000">Barrier: Raising</text>
</g>
<!-- Barrier_Raising&#45;&gt;Idle -->
<g id="edge6" class="edge">
<title>Barrier_Raising-&gt;Idle</title>
<path fill="none" stroke="#000000" d="M1442.2257,-68.0306C1387.9407,-63.6698 1312.6209,-58.816 1246.2909,-58.816 390.6411,-58.816 390.6411,-58.816 390.6411,-58.816 312.8229,-58.816 224.1928,-63.8774 161.5298,-68.3067"/>
<polygon fill="#000000" stroke="#000000" points="161.0361,-64.8331 151.3122,-69.0396 161.537,-71.8151 161.0361,-64.8331"/>
<text text-anchor="middle" x="809.5518" y="-63.016" font-family="Times,serif" font-size="14.00" fill="#000000">10 sec elapsed</text>
</g>
<!-- Barrier_Raised&#45;&gt;Barrier_Raising -->
<g id="edge5" class="edge">
<title>Barrier_Raised-&gt;Barrier_Raising</title>
<path fill="none" stroke="#000000" d="M1312.8072,-139.6679C1349.8679,-127.8848 1396.3065,-113.1202 1435.5082,-100.6564"/>
<polygon fill="#000000" stroke="#000000" points="1436.8393,-103.906 1445.3087,-97.5405 1434.7183,-97.235 1436.8393,-103.906"/>
<text text-anchor="middle" x="1378.873" y="-137.016" font-family="Times,serif" font-size="14.00" fill="#000000">No train present</text>
</g>
</g>
</svg>